<?xml version="1.0" encoding="utf-8"?>
<!-- Generator: Adobe Illustrator 23.1.0, SVG Export Plug-In . SVG Version: 6.00 Build 0)  -->
<svg version="1.1" id="Layer_1" xmlns="http://www.w3.org/2000/svg" xmlns:xlink="http://www.w3.org/1999/xlink" x="0px" y="0px"
	 viewBox="0 0 200 200" style="enable-background:new 0 0 200 200;" xml:space="preserve">
<style type="text/css">
	.st0{fill:#CCE1FF;}
	.st1{fill:#5599FF;}
</style>
<g id="Layer_2">
</g>
<g>
	<g>
		<path class="st0" d="M35.3,114.6C12.6,114.6,0,125.6,0,145c0,1.6,1.2,2.8,2.8,2.8h65.3c1.6,0,2.8-1.2,2.8-2.8
			C70.6,125.6,58,114.6,35.3,114.6z"/>
		<path class="st0" d="M35.3,72C24.7,72,17,80.1,17,90.7c0,11,8.1,19.9,18.3,19.9c10.1,0,18.3-8.9,18.3-19.9
			C53.6,80.1,45.8,72,35.3,72z"/>
	</g>
	<g>
		<path class="st0" d="M129,145c0,1.6,1.2,2.8,2.8,2.8h65.3c1.6,0,2.8-1.2,2.8-2.8c0-19.5-12.6-30.4-35.3-30.4
			C142,114.6,129.4,125.6,129,145z"/>
		<path class="st0" d="M146.4,90.7c0,11,8.1,19.9,18.3,19.9c10.1,0,18.3-8.9,18.3-19.9c0-10.5-7.7-18.7-18.3-18.7
			C154.2,72,146.4,80.1,146.4,90.7z"/>
	</g>
	<g>
		<path class="st1" d="M99.3,108.1c-39.4,0-61.2,19-61.2,52.7c0,2.8,2.1,4.9,4.9,4.9h113.2c2.8,0,4.9-2.1,4.9-4.9
			C160.4,127.1,138.6,108.1,99.3,108.1z"/>
		<path class="st1" d="M99.3,34.2c-18.3,0-31.6,14.1-31.6,32.4c0,19,14.1,34.5,31.6,34.5c17.6,0,31.6-15.5,31.6-34.5
			C130.9,48.3,117.5,34.2,99.3,34.2z"/>
	</g>
</g>
</svg>
