<?xml version="1.0" encoding="utf-8"?>
<!-- Generator: Adobe Illustrator 23.1.0, SVG Export Plug-In . SVG Version: 6.00 Build 0)  -->
<svg version="1.1" id="Layer_1" xmlns="http://www.w3.org/2000/svg" xmlns:xlink="http://www.w3.org/1999/xlink" x="0px" y="0px"
	 viewBox="0 0 200 200" style="enable-background:new 0 0 200 200;" xml:space="preserve">
<style type="text/css">
	.st0{display:none;}
	.st1{display:inline;fill:#5555FF;}
	.st2{fill:#CCE1FF;}
	.st3{fill:#5599FF;}
	.st4{fill:#FFFFFF;}
</style>
<g id="레이어_1" class="st0">
	<path class="st1" d="M317,330l-56-32v-65c0-6-5-11-11-11s-11,5-11,11v65l-56,32c-5,3-7,10-4,15s10,7,15,4l56-32l56,32c2,1,4,1,5,1
		c4,0,7-2,9-5C324,339,322,333,317,330z"/>
	<path class="st1" d="M250,105c-56,0-87,27-87,75c0,4,3,7,7,7h160c4,0,7-3,7-7C337,132,306,105,250,105z M177,173c3-36,27-54,73-54
		s71,18,73,54H177z"/>
	<path class="st1" d="M250,0c-26,0-45,20-45,46c0,27,20,49,45,49s45-22,45-49C295,20,276,0,250,0z M250,82c-18,0-32-16-32-35
		s13-33,32-33c18,0,32,14,32,33S268,82,250,82z"/>
	<path class="st1" d="M413,418c-56,0-87,27-87,75c0,4,3,7,7,7h161c4,0,7-3,7-7C500,445,469,418,413,418z M340,486c3-36,27-54,73-54
		s71,18,73,54H340z"/>
	<path class="st1" d="M413,313c-26,0-45,20-45,46c0,27,20,49,45,49s45-22,45-49C458,333,439,313,413,313z M413,395
		c-18,0-32-16-32-35s13-33,32-33c18,0,32,14,32,33C444,379,430,395,413,395z"/>
	<path class="st1" d="M87,418c-56,0-87,27-87,75c0,4,3,7,7,7h161c4,0,7-3,7-7C174,445,143,418,87,418z M14,486c3-36,27-54,73-54
		s71,18,73,54H14z"/>
	<path class="st1" d="M87,313c-26,0-45,20-45,46c0,27,20,49,45,49s45-22,45-49C132,333,113,313,87,313z M87,395c-18,0-32-16-32-35
		s13-33,32-33c18,0,32,14,32,33S105,395,87,395z"/>
</g>
<g>
	<path class="st2" d="M151.8,87.5h-4.2v-2.3c0-1.8,0.5-3.5,0.3-5.1c-0.8,0-1.2,0.1-1.9,0.1c-11.2,0-21.9-4.5-30.2-12.7
		c-5.1-4.9-8.7-11-10.7-17.7c-11.3-1-24-1.1-36.5-0.3c-20,1.3-35.1,5.2-38.6,10.4c-1.3,2.6-6.4,8.7-6.4,24.8v2.8h0.8
		c-3,0-7.8,1.6-7.8,4.6v15.2c0,2.2,1.2,4.4,3.8,5.2l1.2,0.4v1.7c0,24.4,1.6,49.2,2.5,60.9c0,2.6,1.2,5.7,2.6,6.5
		c0.9,0.9,3,1.3,3,1.3H30h5.5v10.8c0,3,3.1,5.2,7,5.2c3.9,0,7-2.2,7-5.2v-10.8h75v11.3c0,3,3.1,5.2,7,5.2c3.9,0,7-2.2,7-5.2v-11.3
		h6.7c1.3,0,2.4-0.7,3.8-1.5c0.4,0-1.5-1.1-1.5-1.5c0-3.5,0-8.3,0-13.9c0-13.9,0-33.1,0-51.3v-1.7l2.4-0.4c2.2-0.9,4.6-3,4.6-5.2
		V92.6C154.6,89.5,154.9,89.5,151.8,87.5z M37.6,124.8V94.2c0-2.6,2.1-4.7,4.7-4.7h86.6c2.6,0,4.7,2.1,4.7,4.7v30.6h0
		c0,2.6-2.1,4.7-4.7,4.7H42.3C39.7,129.5,37.6,127.4,37.6,124.8z M52.6,167.3c-7,0-12.2-5.7-12.2-12.2c0-7,5.7-12.2,12.2-12.2
		c7,0,12.2,5.7,12.2,12.2C64.8,161.7,59.2,167.3,52.6,167.3z M130.5,163.8c-2.2,2.2-5.2,3.5-8.7,3.5c-7,0-12.2-5.7-12.2-12.2
		c0-7,5.7-12.2,12.2-12.2c7,0,12.2,5.7,12.2,12.2C134,158.6,132.7,161.7,130.5,163.8z"/>
	<g>
		<g>
			<path class="st3" d="M172.8,11c-7.1-7.1-16.5-11-26.5-11c-10,0-19.4,3.9-26.1,11c-7.1,7.1-11,16.5-11,26.1
				c0,9.7,3.9,19.4,11,26.1c7.1,7.1,16.5,11,26.1,11s19.4-3.9,26.1-11c7.1-7.1,11-16.5,11-26.1C183.4,27.4,179.6,17.8,172.8,11z"/>
		</g>
	</g>
	<g>
		<g>
			<g>
				<path class="st4" d="M146.6,56.7c-1.6,0-2.8-1.3-2.8-2.8v-3.1h-3.1c-1.6,0-2.8-1.3-2.8-2.8c0-1.6,1.3-2.8,2.8-2.8h7.8
					c1.6,0,3.1-1.5,3.1-3.1s-1.5-3.1-3.1-3.1h-3.8c-4.6,0-8.5-3.9-8.5-8.5c0-4.3,3.3-7.9,7.5-8.4V19c0-1.6,1.3-2.8,2.8-2.8
					c1.6,0,2.8,1.3,2.8,2.8v2.8h3.1c1.6,0,2.8,1.3,2.8,2.8c0,1.6-1.2,2.8-2.8,2.8h-7.8c-1.6,0-3.1,1.5-3.1,3.1s1.5,3.1,3.1,3.1h3.8
					c4.5,0,8.5,4.1,8.5,8.7c0,4.4-3.3,7.9-7.5,8.4v3.1C149.4,55.5,148.2,56.7,146.6,56.7z"/>
			</g>
		</g>
	</g>
</g>
</svg>
