<?xml version="1.0" encoding="utf-8"?>
<!-- Generator: Adobe Illustrator 23.1.0, SVG Export Plug-In . SVG Version: 6.00 Build 0)  -->
<svg version="1.1" id="Layer_1" xmlns="http://www.w3.org/2000/svg" xmlns:xlink="http://www.w3.org/1999/xlink" x="0px" y="0px"
	 viewBox="0 0 200 200" style="enable-background:new 0 0 200 200;" xml:space="preserve">
<style type="text/css">
	.st0{display:none;}
	.st1{display:inline;fill:#5555FF;}
	.st2{display:inline;}
	.st3{fill:#5555FF;}
	.st4{fill:#FFFFFF;}
	.st5{fill:#CCE1FF;}
	.st6{fill:#5599FF;}
</style>
<g id="레이어_1" class="st0">
	<path class="st1" d="M17,330l-56-32v-65c0-6-5-11-11-11s-11,5-11,11v65l-56,32c-5,3-7,10-4,15s10,7,15,4l56-32l56,32c2,1,4,1,5,1
		c4,0,7-2,9-5C24,339,22,333,17,330z"/>
	<path class="st1" d="M-50,105c-56,0-87,27-87,75c0,4,3,7,7,7H30c4,0,7-3,7-7C37,132,6,105-50,105z M-123,173c3-36,27-54,73-54
		s71,18,73,54H-123z"/>
	<path class="st1" d="M-50,0c-26,0-45,20-45,46c0,27,20,49,45,49S-5,73-5,46C-5,20-24,0-50,0z M-50,82c-18,0-32-16-32-35
		s13-33,32-33c18,0,32,14,32,33S-32,82-50,82z"/>
	<path class="st1" d="M113,418c-56,0-87,27-87,75c0,4,3,7,7,7h161c4,0,7-3,7-7C200,445,169,418,113,418z M40,486c3-36,27-54,73-54
		s71,18,73,54H40z"/>
	<path class="st1" d="M113,313c-26,0-45,20-45,46c0,27,20,49,45,49s45-22,45-49C158,333,139,313,113,313z M113,395
		c-18,0-32-16-32-35s13-33,32-33c18,0,32,14,32,33C144,379,130,395,113,395z"/>
	<path class="st1" d="M-213,418c-56,0-87,27-87,75c0,4,3,7,7,7h161c4,0,7-3,7-7C-126,445-157,418-213,418z M-286,486
		c3-36,27-54,73-54s71,18,73,54H-286z"/>
	<path class="st1" d="M-213,313c-26,0-45,20-45,46c0,27,20,49,45,49s45-22,45-49C-168,333-187,313-213,313z M-213,395
		c-18,0-32-16-32-35s13-33,32-33c18,0,32,14,32,33S-195,395-213,395z"/>
</g>
<g class="st0">
	<g class="st2">
		<g>
			<g>
				<path class="st3" d="M161,34C139,12,110,0,79,0S19,12-2,34c-22,22-34,51-34,81s12,60,34,81c22,22,51,34,81,34s60-12,81-34
					c22-22,34-51,34-81S182,55,161,34z"/>
			</g>
		</g>
		<g>
			<g>
				<path class="st4" d="M87,108H73c-8,0-15-7-15-15s7-15,15-15h29c4,0,7-3,7-7s-3-7-7-7H87V50c0-4-3-7-7-7s-7,3-7,7v15l0,0
					c-16,0-28,13-28,28s13,28,28,28h14c8,0,15,7,15,15s-7,15-15,15H58c-4,0-7,3-7,7s3,7,7,7h15v15c0,4,3,7,7,7s7-3,7-7v-15l0,0
					c16,0,28-13,28-28S102,108,87,108z"/>
			</g>
		</g>
		<g>
			<g>
				<path class="st3" d="M21,225c-3-28-8-51-15-59c-30-36-242-38-267,0c-6,9-10,32-13,59c-9,1-16,9-16,18v35c0,8,5,14,12,17
					c-2,55,0,112,2,141c0,22,15,18,15,18h14v24c0,9,10,17,22,17s22-8,22-17v-24h161v24c0,9,10,17,22,17s22-8,22-17v-24h5
					c0,0,17,2,19-8c0-28,2-92,0-151c7-2,13-9,13-17v-35C38,234,30,226,21,225z M-206,426c-13,0-23-10-23-23c-1-13,10-23,23-23
					s23,10,23,23S-194,426-206,426z M-47,426c-13,0-23-10-23-23s10-23,23-23s23,10,23,23C-23,416-34,426-47,426z"/>
				<path class="st4" d="M-20,500c-15,0-27-10-27-22v-19h-151v19c0,12-12,22-27,22s-27-10-27-22v-19h-8c-2,0-8,1-13-3s-8-11-8-20
					c-2-26-4-82-2-138c-7-4-12-12-12-20v-35c0-10,7-19,16-22c3-30,7-49,13-58c13-20,64-27,94-29c72-5,162,5,182,29c7,9,12,28,16,58
					c10,3,17,12,17,22v35c0,9-5,17-13,20c1,41,0,84,0,115c0,13,0,24,0,33c0,4-2,7-5,9c-6,5-15,5-18,4v19C7,490-5,500-20,500z
					 M-208,449h171v29c0,7,8,12,17,12s17-5,17-12v-29H7c3,0,10,0,13-2c1,0,1-1,1-2c0-8,0-19,0-32c0-32,1-76,0-118v-4l4-1
					c5-2,9-7,9-12v-35c0-7-5-12-12-13h-4v-4c-4-38-10-52-14-57c-16-19-96-30-173-25c-46,3-78,12-86,24c-3,6-8,20-12,57v4h-4
					c-7,1-11,6-11,13v35c0,5,3,10,9,12l3,1v4c-2,56,0,113,2,140c0,6,1,11,4,13c2,2,5,1,5,1h1h19v29c0,7,8,12,17,12s17-5,17-12v-28
					H-208z M-47,431c-16,0-28-13-28-28c0-16,13-28,28-28c16,0,28,13,28,28c0,8-3,15-8,20S-39,431-47,431z M-47,385c-10,0-18,8-18,18
					s8,18,18,18c5,0,9-2,13-5c3-3,5-8,5-13C-29,393-37,385-47,385z M-206,431c-16,0-28-13-28-28c0-16,13-28,28-28c16,0,28,13,28,28
					S-191,431-206,431z M-206,385c-10,0-18,8-18,18s8,18,18,18s18-8,18-18S-196,385-206,385z"/>
			</g>
		</g>
		<rect x="-209" y="171" class="st4" width="163" height="25"/>
		<rect x="-237" y="209" class="st4" width="220" height="115"/>
	</g>
</g>
<g>
	<path class="st5" d="M143.4,64.4h-130C6,64.4,0,70.4,0,77.8v84.6c0,7.4,6,13.4,13.4,13.4h44.2l-1.3,12.6c-0.1,1,0.2,2,0.9,2.8
		c0.7,0.8,1.7,1.2,2.7,1.2h38.1c1,0,2-0.4,2.7-1.2c0.7-0.8,1-1.8,0.9-2.8l-1.3-12.6h43.3c7.4,0,13.4-6,13.4-13.4V77.8
		C156.8,70.4,150.8,64.4,143.4,64.4z M63.8,185.1l1-9.4h28.1l1,9.4H63.8z M149.6,162.3c0,3.4-2.8,6.2-6.2,6.2h-130
		c-3.4,0-6.2-2.8-6.2-6.2v-3.9h142.4V162.3z"/>
	<path class="st6" d="M141.4,7.7C109,7.7,82.7,34,82.7,66.4c0,12.3,3.8,23.7,10.2,33.1l-4.4,16.3l15.5-4.2
		c10.1,8.3,23.1,13.4,37.3,13.4c32.4,0,58.6-26.2,58.6-58.6C200,34,173.8,7.7,141.4,7.7z"/>
	<g>
		<path class="st4" d="M175,49.8c-0.8-0.4-1.7-0.2-2.3,0.3l-12.9,10.2V48.6c0-1.2-1-2.3-2.3-2.3h-45.7c-1.3,0-2.3,1-2.3,2.3v36.2
			c0,1.2,1,2.3,2.3,2.3h45.7c1.2,0,2.3-1,2.3-2.3V73l12.9,10.2c0.6,0.6,1.6,0.7,2.3,0.3c0.8-0.4,1.3-1.1,1.3-2V51.8
			C176.3,51,175.8,50.2,175,49.8z"/>
	</g>
</g>
</svg>
