<?xml version="1.0" encoding="utf-8"?>
<!-- Generator: Adobe Illustrator 17.0.0, SVG Export Plug-In . SVG Version: 6.00 Build 0)  -->
<!DOCTYPE svg PUBLIC "-//W3C//DTD SVG 1.1//EN" "http://www.w3.org/Graphics/SVG/1.1/DTD/svg11.dtd">
<svg version="1.1" id="Capa_1" xmlns="http://www.w3.org/2000/svg" xmlns:xlink="http://www.w3.org/1999/xlink" x="0px" y="0px"
	 width="512px" height="512px" viewBox="0 0 512 512" enable-background="new 0 0 512 512" xml:space="preserve">
<g>
	<g>
		<path fill="#FFFFFF" d="M497.331,250.078c-8.149,0-14.669,6.52-14.669,14.669V398.18c0,36.292-29.555,65.739-65.739,65.739H95.076
			c-36.292,0-65.739-29.555-65.739-65.739V262.574c0-8.149-6.52-14.669-14.669-14.669S0,254.424,0,262.574V398.18
			c0,52.482,42.703,95.076,95.076,95.076h321.847c52.482,0,95.076-42.703,95.076-95.076V264.747
			C512,256.706,505.48,250.078,497.331,250.078z"/>
		<path fill="#FFFFFF" d="M245.677,376.774c2.825,2.825,6.628,4.346,10.323,4.346c3.694,0,7.497-1.413,10.323-4.346l93.229-93.229
			c5.759-5.759,5.759-14.995,0-20.754c-5.759-5.759-14.995-5.759-20.754,0l-68.129,68.238V33.413c0-8.149-6.52-14.669-14.669-14.669
			c-8.149,0-14.669,6.52-14.669,14.669v297.616l-68.238-68.238c-5.759-5.759-14.995-5.759-20.754,0s-5.759,14.995,0,20.754
			L245.677,376.774z"/>
	</g>
</g>
</svg>
