<?xml version="1.0" encoding="utf-8"?>
<!-- Generator: Adobe Illustrator 24.1.0, SVG Export Plug-In . SVG Version: 6.00 Build 0)  -->
<svg version="1.1" id="Layer_1" xmlns="http://www.w3.org/2000/svg" xmlns:xlink="http://www.w3.org/1999/xlink" x="0px" y="0px"
	 viewBox="0 0 512 512" style="enable-background:new 0 0 512 512;" xml:space="preserve">
<style type="text/css">
	.st0{fill:#FFFFFF;}
</style>
<path class="st0" d="M511.9,262.7c0,0,0-0.1,0-0.1c0,0,0-0.1,0-0.1c-0.1-0.5-0.1-1-0.2-1.4l-22.5-107.8c-1.4-7-7.6-11.9-14.7-11.9
	H299.9L271,108.8V91h75c5.5,0,10.6-3,13.2-7.9c2.6-4.9,2.3-10.8-0.7-15.4L344,46l14.5-21.7c3.1-4.6,3.4-10.5,0.7-15.4
	C356.6,4,351.5,1,346,1h-90c-8.3,0-15,6.7-15,15v92.8l-29.2,32.4H37.5c-7.1,0-13.2,5-14.7,11.9L0.3,261c-0.1,0.5-0.2,0.9-0.2,1.4
	c0,0,0,0.1,0,0.1c0,0,0,0.1,0,0.1c0,0.5-0.1,1-0.1,1.4V498c0,8.3,6.7,15,15,15h482c8.3,0,15-6.7,15-15V264.1
	C512,263.6,512,263.1,511.9,262.7z M462.3,171.2l16.2,77.9h-82.4l-69.5-77.9H462.3z M313.5,54.3L318,61h-47V31h47l-4.5,6.7
	C310.2,42.7,310.2,49.3,313.5,54.3z M49.7,171.2h135.2l-70,77.9H33.4L49.7,171.2z M270.4,483h-30v-53h30V483z M482,483H300.4v-68
	c0-8.3-6.7-15-15-15h-60c-8.3,0-15,6.7-15,15v68H30V279.1h91.5c4.2,0,8.3-1.8,11.1-5L256,137l122.2,137c2.8,3.2,6.9,5,11.2,5H482
	V483z"/>
<path class="st0" d="M421.8,370c8.3,0,15-6.7,15-15v-20c0-8.3-6.7-15-15-15c-8.3,0-15,6.7-15,15v20C406.8,363.3,413.5,370,421.8,370
	z"/>
<path class="st0" d="M421.8,450c8.3,0,15-6.7,15-15v-20c0-8.3-6.7-15-15-15c-8.3,0-15,6.7-15,15v20C406.8,443.3,413.5,450,421.8,450
	z"/>
<path class="st0" d="M361.8,320c-8.3,0-15,6.7-15,15v20c0,8.3,6.7,15,15,15c8.3,0,15-6.7,15-15v-20C376.8,326.7,370.1,320,361.8,320
	z"/>
<path class="st0" d="M361.8,400c-8.3,0-15,6.7-15,15v20c0,8.3,6.7,15,15,15c8.3,0,15-6.7,15-15v-20C376.8,406.7,370.1,400,361.8,400
	z"/>
<path class="st0" d="M225.2,320c-8.3,0-15,6.7-15,15v20c0,8.3,6.7,15,15,15s15-6.7,15-15v-20C240.2,326.7,233.5,320,225.2,320z"/>
<path class="st0" d="M286.8,320c-8.3,0-15,6.7-15,15v20c0,8.3,6.7,15,15,15s15-6.7,15-15v-20C301.8,326.7,295,320,286.8,320z"/>
<path class="st0" d="M86.4,320c-8.3,0-15,6.7-15,15v20c0,8.3,6.7,15,15,15c8.3,0,15-6.7,15-15v-20C101.4,326.7,94.7,320,86.4,320z"
	/>
<path class="st0" d="M86.4,400c-8.3,0-15,6.7-15,15v20c0,8.3,6.7,15,15,15c8.3,0,15-6.7,15-15v-20C101.4,406.7,94.7,400,86.4,400z"
	/>
<path class="st0" d="M146.4,320c-8.3,0-15,6.7-15,15v20c0,8.3,6.7,15,15,15c8.3,0,15-6.7,15-15v-20C161.4,326.7,154.7,320,146.4,320
	z"/>
<path class="st0" d="M146.4,400c-8.3,0-15,6.7-15,15v20c0,8.3,6.7,15,15,15c8.3,0,15-6.7,15-15v-20C161.4,406.7,154.7,400,146.4,400
	z"/>
<path class="st0" d="M300.4,240.9c0-24.8-20.2-45-45-45s-45,20.2-45,45s20.2,45,45,45S300.4,265.8,300.4,240.9z M255.4,255.9
	c-8.3,0-15-6.7-15-15s6.7-15,15-15s15,6.7,15,15S263.7,255.9,255.4,255.9z"/>
</svg>
