<?xml version="1.0" encoding="utf-8"?>
<!-- Generator: Adobe Illustrator 24.0.1, SVG Export Plug-In . SVG Version: 6.00 Build 0)  -->
<svg version="1.1" id="Layer_1" xmlns="http://www.w3.org/2000/svg" xmlns:xlink="http://www.w3.org/1999/xlink" x="0px" y="0px"
	 viewBox="0 0 150 18" style="enable-background:new 0 0 150 18;" xml:space="preserve">
<style type="text/css">
	.st0{fill:#FFFFFF;}
</style>
<g>
	<path class="st0" d="M24.3,5.3c-0.9-1.7-2.7-2.9-4.8-2.9c-0.3,0-0.7,0-1,0.1c-1.2-1.1-2.8-1.8-4.6-1.8s-3.4,0.7-4.6,1.9
		C9,2.4,8.5,2.3,8.1,2.3c-2.1,0-3.9,1.2-4.8,3C1.4,5.5,0,7.2,0,9.1c0,2,1.5,3.7,3.5,3.9c0.9,1.6,2.6,2.6,4.6,2.6
		c0.4,0,0.9-0.1,1.3-0.2c1.2,1.2,2.8,1.9,4.7,1.9c1.8,0,3.4-0.7,4.6-1.9c0.3,0.1,0.6,0.1,1,0.1c2,0,3.7-1.1,4.6-2.6
		c2-0.2,3.5-1.9,3.5-3.9C27.7,7.2,26.2,5.6,24.3,5.3z"/>
	<path class="st0" d="M49.6,8.2h-2.9c-1,0-1.5,0.7-1.5,1.5s0.6,1.4,1.5,1.4h1.9v1.8c-0.9,0.6-1.9,0.9-3.1,0.9
		c-2.5,0-4.6-1.8-4.6-4.8c0-3.1,2.3-4.7,4.4-4.7c1.5,0,2.4,0.5,3.2,1.2s1.7,0.6,2.3-0.1c0.6-0.6,0.6-1.5-0.2-2.2
		c-1.4-1.2-3.1-1.8-5-1.8c-4.4,0-7.8,3-7.8,7.8c0,4.6,3.5,7.7,7.8,7.7c2.3,0,4.2-0.9,5.6-2c0.4-0.3,0.7-0.9,0.7-1.6v-2.9
		C51.6,8.9,50.9,8.2,49.6,8.2z"/>
	<path class="st0" d="M58.9,5.8c-3.1,0-5.5,2.4-5.5,5.5s2.4,5.5,5.5,5.5s5.5-2.3,5.5-5.5C64.5,8.1,62.1,5.8,58.9,5.8z M58.9,13.9
		c-1.4,0-2.4-1.1-2.4-2.7c0-1.5,1-2.7,2.4-2.7s2.4,1.1,2.4,2.7C61.4,12.8,60.4,13.9,58.9,13.9z"/>
	<path class="st0" d="M71.2,5.8c-3.1,0-5.5,2.4-5.5,5.5s2.4,5.5,5.5,5.5s5.5-2.3,5.5-5.5C76.8,8.1,74.4,5.8,71.2,5.8z M71.2,13.9
		c-1.4,0-2.4-1.1-2.4-2.7c0-1.5,1-2.7,2.4-2.7s2.4,1.1,2.4,2.7C73.7,12.8,72.6,13.9,71.2,13.9z"/>
	<path class="st0" d="M84.8,6c-0.2-0.1-0.6-0.1-0.9-0.1c-0.9,0-1.9,0.4-2.5,1.3c-0.1-0.7-0.6-1.3-1.5-1.3c-0.8,0-1.5,0.6-1.5,1.6V15
		c0,1,0.7,1.6,1.5,1.6s1.5-0.6,1.5-1.6v-2.9c0-2.2,1.2-3.3,2.6-3.3c0.3,0,0.4,0,0.7,0c0.7,0,1.3-0.6,1.3-1.4S85.5,6.1,84.8,6z"/>
	<path class="st0" d="M91.6,5.8c-3.1,0-5.5,2.4-5.5,5.5s2.4,5.5,5.5,5.5s5.5-2.3,5.5-5.5S94.7,5.8,91.6,5.8z M91.6,13.9
		c-1.4,0-2.4-1.1-2.4-2.7c0-1.5,1-2.7,2.4-2.7S94,9.6,94,11.2S93,13.9,91.6,13.9z"/>
	<path class="st0" d="M103.9,5.8c-3.1,0-5.5,2.4-5.5,5.5s2.4,5.5,5.5,5.5s5.5-2.3,5.5-5.5S107,5.8,103.9,5.8z M103.9,13.9
		c-1.4,0-2.4-1.1-2.4-2.7c0-1.5,1-2.7,2.4-2.7s2.4,1.1,2.4,2.7S105.3,13.9,103.9,13.9z"/>
	<path class="st0" d="M122.6,5.8c-1.3,0-2.4,0.5-3.1,1.3c-0.7-0.8-1.7-1.3-2.9-1.3c-1.1,0-2,0.4-2.6,1.1c-0.2-0.6-0.8-0.9-1.4-0.9
		c-0.8,0-1.5,0.6-1.5,1.6l0,0V15c0,1,0.7,1.6,1.5,1.6s1.5-0.6,1.5-1.6v-3.8c0-1.6,0.6-2.5,1.8-2.5c1.1,0,1.6,0.8,1.6,1.9V15
		c0,1,0.7,1.6,1.5,1.6s1.5-0.6,1.5-1.6v-4.1c0-1.5,0.7-2.3,1.8-2.3c1.1,0,1.6,0.8,1.6,1.9V15c0,1,0.7,1.6,1.5,1.6S127,16,127,15
		v-4.6C127,7.4,125.4,5.8,122.6,5.8z"/>
	<path class="st0" d="M133.6,5.8c-3,0-5.2,2.4-5.2,5.6c0,3.3,2.4,5.4,5.5,5.4c1.6,0,2.6-0.4,3.5-1c0.8-0.6,0.9-1.5,0.4-2.1
		c-0.5-0.7-1.3-0.9-2.1-0.3c-0.4,0.4-1,0.6-1.9,0.6c-1.3,0-2.2-0.8-2.4-1.9h5.4c1.3,0,1.7-0.7,1.7-1.7C138.6,8.3,137,5.8,133.6,5.8z
		 M131.7,10c0.2-0.9,0.9-1.6,2-1.6c1,0,1.7,0.7,1.8,1.6H131.7z"/>
	<path class="st0" d="M150,10.4c0-2-1.6-4.6-5-4.6c-3,0-5.2,2.4-5.2,5.6c0,3.3,2.4,5.4,5.5,5.4c1.6,0,2.6-0.4,3.5-1
		c0.8-0.6,0.9-1.5,0.4-2.1c-0.5-0.7-1.3-0.9-2.1-0.3c-0.4,0.4-1,0.6-1.9,0.6c-1.3,0-2.2-0.8-2.4-1.9h5.4C149.6,12,150,11.3,150,10.4
		z M143.1,10c0.2-0.9,0.9-1.6,2-1.6c1,0,1.7,0.7,1.8,1.6H143.1z"/>
</g>
</svg>
